@startuml Tutorial
!theme mars

    class Clase1
    {
        toString()
    }
 
    class Clase2
    {
        +string[] elementos
        int contador
        +MostrarElementos()
        Contar()
    }

    class Clase3
    {
        'private
        -field1
        'protected
        #field2

        'package private
        ~method1()
        'public
        +method2()
    }
 
    Clase1 <|-- Clase2: Herencia
    Clase1 <|-- Clase3
    
    Clase4 "1" *-- "n" Clase5: Composición
    Clase6 o-- Clase7: Agregación

@enduml